# Apple ModelIO OBJ File: khoidat
mtllib khoidat.mtl
g 
v -15.7399 -0.0075 29.8053
v -15.7399 -0.0075 24.8053
v -10.7399 -0.0075 24.8053
v -10.7399 -0.0075 29.8053
v -15.7399 2.9925 29.8053
v -10.7399 2.9925 29.8053
v -10.7399 2.9925 24.8053
v -15.7399 2.9925 24.8053
vn 0 -1 -0
vn 0 1 -0
vn 0 0 1
vn 1 0 -0
vn 0 0 -1
vn -1 0 -0
vt 1 0
vt 1 1
vt 0 1
vt 0 0
usemtl material_1
f 1/1/1 2/2/1 3/3/1 4/4/1 
f 5/4/2 6/1/2 7/2/2 8/3/2 
f 1/4/3 4/1/3 6/2/3 5/3/3 
f 4/4/4 3/1/4 7/2/4 6/3/4 
f 3/4/5 2/1/5 8/2/5 7/3/5 
f 2/4/6 1/1/6 5/2/6 8/3/6 
s off
