# 3ds Max Wavefront OBJ Exporter v0.97b - (c)2007 guruware
# File Created: 05.07.2020 14:39:38

mtllib ô c?.mtl

#
# object Box156
#

v  4.3175 2.8182 2.5206
v  4.3175 2.8182 -2.4794
v  9.3175 2.8182 -2.4794
v  9.3175 2.8182 2.5206
v  4.3675 2.9105 2.4706
v  9.2675 2.9105 2.4706
v  9.2675 2.9105 -2.4294
v  4.3675 2.9105 -2.4294
v  9.3175 2.8605 2.5206
v  4.3175 2.8605 2.5206
v  9.3175 2.8605 -2.4794
v  4.3175 2.8605 -2.4794
# 12 vertices

vn 0.0000 -1.0000 -0.0000
vn 0.0000 1.0000 -0.0000
vn 0.0000 0.0000 1.0000
vn 1.0000 0.0000 -0.0000
vn 0.0000 -0.0000 -1.0000
vn -1.0000 0.0000 -0.0000
vn 0.0000 0.7071 0.7071
vn 0.7071 0.7071 -0.0000
vn 0.0000 0.7071 -0.7071
vn -0.7071 0.7071 -0.0000
# 10 vertex normals

vt 1.0000 0.0000 0.0000
vt 1.0000 1.0000 0.0000
vt 0.0000 1.0000 0.0000
vt 0.0000 0.0000 0.0000
vt 0.0100 0.0100 0.0000
vt 0.9900 0.0100 0.0000
vt 0.9900 0.9900 0.0000
vt 0.0100 0.9900 0.0000
vt 1.0000 0.9833 0.0000
vt 0.0000 0.9833 0.0000
vt 0.0100 0.9990 0.0000
vt 0.9900 0.9990 0.0000
# 12 texture coords

g Box156
usemtl 01___Default
s 2
f 1/1/1 2/2/1 3/3/1 4/4/1 
s 4
f 5/5/2 6/6/2 7/7/2 8/8/2 
s 8
f 1/4/3 4/1/3 9/9/3 10/10/3 
s 16
f 4/4/4 3/1/4 11/9/4 9/10/4 
s 32
f 3/4/5 2/1/5 12/9/5 11/10/5 
s 64
f 2/4/6 1/1/6 10/9/6 12/10/6 
s off
f 5/11/7 10/10/7 9/9/7 6/12/7 
f 6/11/8 9/10/8 11/9/8 7/12/8 
f 7/11/9 11/10/9 12/9/9 8/12/9 
f 8/11/10 12/10/10 10/9/10 5/12/10 
# 10 polygons

